<svg id="visual" viewBox="0 0 450 900" width="450" height="900" xmlns="http://www.w3.org/2000/svg" xmlns:xlink="http://www.w3.org/1999/xlink" version="1.1"><rect x="0" y="0" width="450" height="900" fill="#001220"></rect><path d="M0 578L10.7 575.2C21.3 572.3 42.7 566.7 64.2 581C85.7 595.3 107.3 629.7 128.8 642.5C150.3 655.3 171.7 646.7 193 648.7C214.3 650.7 235.7 663.3 257 651.5C278.3 639.7 299.7 603.3 321.2 588.5C342.7 573.7 364.3 580.3 385.8 591.3C407.3 602.3 428.7 617.7 439.3 625.3L450 633L450 901L439.3 901C428.7 901 407.3 901 385.8 901C364.3 901 342.7 901 321.2 901C299.7 901 278.3 901 257 901C235.7 901 214.3 901 193 901C171.7 901 150.3 901 128.8 901C107.3 901 85.7 901 64.2 901C42.7 901 21.3 901 10.7 901L0 901Z" fill="#e3b847"></path><path d="M0 650L10.7 664.5C21.3 679 42.7 708 64.2 703C85.7 698 107.3 659 128.8 642.5C150.3 626 171.7 632 193 629.8C214.3 627.7 235.7 617.3 257 619.5C278.3 621.7 299.7 636.3 321.2 637.3C342.7 638.3 364.3 625.7 385.8 631.8C407.3 638 428.7 663 439.3 675.5L450 688L450 901L439.3 901C428.7 901 407.3 901 385.8 901C364.3 901 342.7 901 321.2 901C299.7 901 278.3 901 257 901C235.7 901 214.3 901 193 901C171.7 901 150.3 901 128.8 901C107.3 901 85.7 901 64.2 901C42.7 901 21.3 901 10.7 901L0 901Z" fill="#db9f39"></path><path d="M0 726L10.7 722.5C21.3 719 42.7 712 64.2 705.5C85.7 699 107.3 693 128.8 700.3C150.3 707.7 171.7 728.3 193 729C214.3 729.7 235.7 710.3 257 712.3C278.3 714.3 299.7 737.7 321.2 749.3C342.7 761 364.3 761 385.8 763.5C407.3 766 428.7 771 439.3 773.5L450 776L450 901L439.3 901C428.7 901 407.3 901 385.8 901C364.3 901 342.7 901 321.2 901C299.7 901 278.3 901 257 901C235.7 901 214.3 901 193 901C171.7 901 150.3 901 128.8 901C107.3 901 85.7 901 64.2 901C42.7 901 21.3 901 10.7 901L0 901Z" fill="#d2872e"></path><path d="M0 765L10.7 768.3C21.3 771.7 42.7 778.3 64.2 788.2C85.7 798 107.3 811 128.8 816C150.3 821 171.7 818 193 808.2C214.3 798.3 235.7 781.7 257 788C278.3 794.3 299.7 823.7 321.2 824.3C342.7 825 364.3 797 385.8 795.5C407.3 794 428.7 819 439.3 831.5L450 844L450 901L439.3 901C428.7 901 407.3 901 385.8 901C364.3 901 342.7 901 321.2 901C299.7 901 278.3 901 257 901C235.7 901 214.3 901 193 901C171.7 901 150.3 901 128.8 901C107.3 901 85.7 901 64.2 901C42.7 901 21.3 901 10.7 901L0 901Z" fill="#c76f26"></path></svg>